<svg width="15" height="10" fill="none" xmlns="http://www.w3.org/2000/svg">
    <path d="M12.286 2.017c.066.096.143.185.224.268a.386.386 0 0 1-.236-.134l.063.235c-.13.161-.06.444.137.521a.239.239 0 0 1-.226-.178l-.01.184c-.124.006-.07-.223-.169-.3-.08-.066-.205.035-.202.14.003.103.08.187.155.258-.114-.03-.23-.056-.343-.086.048.098.099.196.146.295a.347.347 0 0 1-.19-.131c.015.065.03.134.047.199-.032-.03-.065-.06-.098-.086.012.044.024.089.033.134l-.137-.075-.098.345a2.035 2.035 0 0 0-.12-.05.798.798 0 0 1-.43.244c.011.071.023.143.032.214-.003-.036-.066-.03-.077.006-.012.033.003.071.008.107.018.122-.127.235-.24.185.035.256-.209.509-.465.488.036.056-.003.143-.068.155.02.047.041.092.065.14a.637.637 0 0 0-.399-.051l.12.238-.134-.12.092.18c-.06-.04-.128-.087-.188-.099.042.042.084.092.125.134-.038.02-.285.048-.282-.045l-.006.236c-.05-.054-.05-.093-.069-.14.072.196-.152-.12-.086.06.039.02.074.08.101.106-.11-.044-.178.027-.193.11l-.084-.095c-.113.072-.142.241-.244.345.078.003.23.161.218.206l-.152-.12c.068.102.083.019.152.158-.054.024-.185-.125-.212-.19l.003.095c-.044-.036-.056-.068-.107-.122.069.101-.22-.05-.095.122l-.045-.036c-.1.105-.098.2-.172.292.122.116.062.125.137.244-.099.027-.262.01-.322.095.01.11.09.113.14.206-.116-.101-.176-.015-.22-.128-.069.11-.09.14-.107.339.056.03.089.036.122.077 0 .04-.093.003-.143-.047L8.03 7.13c.045.286-.607-.003-.473.318l-.006-.018.02.22c-.065.033-.056-.106-.157-.136.027.157.018.155-.009.155-.027 0-.05-.021-.02.071-.129-.193-.12-.19-.123-.146.003.039-.009.122-.039-.056l.018.136c.012.14-.015-.07-.018-.104.01.11.018.122.021.203-.009.047-.02.074-.032.083a.465.465 0 0 1-.042-.22c0-.087.024-.16.044-.197.021-.017-.32.459-.199.22.048-.044.092-.095.134-.142a.264.264 0 0 1-.054.041l-.02.01c-.012-.007-.027-.016-.04-.021a.692.692 0 0 1-.124-.122c-.074-.09-.143-.182-.292-.197.042-.02.087-.06.101-.045.075-.13-.113-.133-.199-.053-.015-.036.072-.077.101-.134.03-.092-.214.036-.128-.077.015-.018.042-.021.057-.024-.072.024-.083-.116-.185.015 0-.116-.163-.069-.137-.182-.163.092-.032-.167-.232 0 .203-.178.06-.256-.068-.208.071-.042.03-.092.128-.152-.045-.042-.12-.048-.211.054.16-.3-.343.012-.08-.316a1.924 1.924 0 0 1-.57-.163c.203-.179.14.113.343-.084-.184-.039-.414.054-.47-.101 0-.054.101-.063.143-.083-.185-.039-.182-.232-.381-.235.018-.018.047-.024.074-.027-.024-.015-.015-.072-.101.012l.042-.003c-.102.151-.346.172-.417.232.289-.205-.027-.158.348-.405a.27.27 0 0 0-.143.083c0-.035.03-.074.116-.116-.113-.026-.187.087-.244.021.045-.038.072-.041.128-.083-.113.045-.229.092-.24.003.03-.021.056-.06.07-.042-.097-.08-.371.05-.383-.128.217-.143.03-.092.187-.247l-.098-.009-.06.096c-.041-.051-.199.017-.184-.075l.101-.027-.113-.062-.015.107c-.128.03-.202.196-.214.09.03-.004-.042-.051.033-.164-.075.023-.152.05-.143-.024.045-.057.187-.16.217-.197-.158.102-.143-.077-.315.027a.684.684 0 0 0 .143-.119l-.128.083c.015-.053.03-.074.1-.133-.04-.087-.187.21-.172.05.015-.003.03-.02.057-.024-.027-.122-.212-.089-.226-.211.142-.173.098.027.214-.125-.128-.077-.399-.036-.455-.176v.036c-.244.2.044-.181-.114-.13a.388.388 0 0 0 .117-.084c-.027-.104-.188-.09-.36-.128l.07-.042c.016-.089-.068-.137-.082-.205-.072.042-.087.006-.158.104.211-.45-.423-.092-.253-.476.015.015.083-.015.074-.024l-.152-.053c-.092.1-.047.071-.107.163-.071.042-.145.057-.17.03.11-.015.161-.149.2-.223-.027.033-.068.056-.098.086.13-.22-.211.179-.158-.006l.045-.05c-.054-.003-.146.035-.158-.006.104-.12.08-.021.179-.107-.045-.036-.298.122-.218-.024.048-.012.075.012.122 0 .099-.167.06-.14.054-.185l-.003-.128-.02.054c-.355.229-.156-.057-.42.06.253-.108.119-.09.256-.206.02-.05.035-.116.08-.143-.137.066.033-.134-.167-.036.042-.041-.03-.038.087-.13-.075-.012-.066.077-.123.124-.208.069.033-.32-.258-.232-.158-.006-.316.11-.459.099.045-.09.176-.122.176-.122.024-.102-.018-.122-.101-.117a.32.32 0 0 0 .104-.119c-.042-.02-.176.122-.152.021.054-.035.14-.098.2-.125-.075 0-.188.036-.262.033.065-.08.134-.08.196-.113-.074-.012-.173-.05-.3.045l-.015.065c-.021-.012.092-.101.125-.11.128-.048.008.092-.033.134L.7 1.574c-.223.259.143.074.179.143l-.203.146.206-.09c-.036.057-.131.158-.182.155-.053.122.098-.024.03.101a.061.061 0 0 1-.033.027l.09-.012c-.045.027-.122.125-.12.077-.041.167.242-.014.128.14l-.017.006c.151.039.142-.113.366-.187l-.286.354.143-.113c.003.015.012.044-.045.09.125-.049.054-.06.158-.12-.077.16.178.08-.024.289.116-.078.036-.12.155-.131-.214.226.095.024.03.163-.131.096-.108-.003-.173.137.223-.157.036.125.107.128.16-.145.14.021.25.033-.056.045.02.196.018.31l-.027.023c.17-.137.197-.05.268-.035-.098.086-.143.113-.208.13l.038.04c.06-.04.099-.051.143-.042l-.128.1c.057.048.241-.02.226.123.116-.098.26-.342.405-.34-.056.06-.158.158-.202.161.015 0 .071-.024.056.012l-.128.066c-.015.074.102-.063.113-.027-.086.08-.044.074-.116.134-.014 0 .015-.057-.026-.033.012.042-.01.125-.063.196.048-.047.116-.107.146-.095.056.048-.086.113-.101.188.071-.042.041.05.172-.069.015.018-.044.075-.071.113.083-.023.137.116.247-.041l.003-.015h.009c.214-.027.104.259.244.3l-.045.039c.101.009.14.095.271.048.015.015-.045.11-.101.151.071.012.125-.03.107.099-.113.026-.054.077-.095.009.012.089-.045.163.128.113-.128.083-.101.17-.045.163l.045-.11c.041.015.056.048.071.084l-.158.119c-.074.273.485-.078.268.28.128-.066.015-.126.161-.212.027.068-.131.315-.12.33-.014.143.275-.13.287-.006.041-.056.172-.193.273-.184.027.068-.16.265-.232.27-.015-.008-.006-.03.015-.044-.033 0-.077 0-.113.071l.057-.041c-.03.074.041.14-.06.202.086-.006.101-.062.101-.116-.015.134.093.104.104.217.018-.035.072-.104.08-.092.028.158.14-.048.224 0-.045.11-.202.16-.071.167-.015.089-.131.137-.188.157.158-.03.042.176.054.227l-.072.006c.042-.003.057.011.072.03l.086-.114c0 .036.015.054-.03.093.086-.045.158-.176.289-.22-.03.074.128.023-.003.16-.027-.122-.131.137-.214.09.03-.004.041.014.041.05a.066.066 0 0 1-.044.027c-.054.19.187-.11.259-.027-.087.062-.131.155-.102.152-.026-.033.116-.134.203-.161-.015.107.095.015.113.048v-.057c.086-.062.101-.027.157-.015-.056.06-.07.006-.086.045.173-.087-.06.22.084.187-.03.075-.143.137-.158.194.158-.033-.045.163.098.151.086-.116.06-.095.202-.142l-.172-.04.214-.07c-.027-.033-.128-.006-.128-.042.116-.048.086-.027.158-.122-.116.187.172.003.113.152l-.259.238c-.045.181.256.012.283.172l.015-.074c.116-.08.071.047.142.042-.089.077-.1.125-.142.19.062-.06.06.077.24-.071l-.074.148c.027.122.33-.137.372-.032-.116.062-.143.154-.259.166.024.027.027.063.09.01-.042.065.181-.037.122.062.047-.024.142-.104.16-.069-.015.018-.041.039-.041.039.041-.039.098-.009.172-.122-.196.327.223.202.054.485.08.03.17.071.223.116-.03.02-.045.039-.042.02-.015.144.289-.184.271-.023-.101.17-.113.027-.143.101-.273.274.128.06.012.268l-.03.003c-.06.131.2 0 .241.086 0 0-.026.021-.044.04.187-.09.315-.046.413-.019-.13.084-.086.024-.187.143.045.015.173-.178.259-.146-.042.078-.042.182-.143.316l-.08-.075c-.11.194.104.101.116.17l-.063.068c.143.11.268-.098.37.036l.02-.08c.158-.173-.006.184.122.068l-.068.271c.068-.009.217-.098.285-.09-.068.182-.184.191-.28.239.045.05.164.152.212.03-.02.008-.06.056-.066-.006.102-.164.17-.22.242-.14-.04.345.038.425.116.538.06-.041.119-.068.163.102.08-.209.158-.268.26-.322.097-.05.213-.098.315-.226-.224-.28.053-.074-.128-.41.026-.063.044-.072.06-.054.074.024.157.044.246.053.098.05.003.113.054.179.125-.095.137.08.28.068-.099-.083-.08-.184.017-.22-.071-.006-.137-.018-.202-.03.012-.297.348.078.298-.148l.056.107c-.003-.096.167-.176-.003-.423.039.02.122.077.122.116.14-.086.012-.467.226-.434l.057.068c0-.039-.086-.152.003-.116.027.027.056.068.068.063-.012-.033-.06-.164.003-.158l.05.092c.191-.033-.017-.34.028-.473.19.178.336.149.407.134l.027.027c.146-.108.048-.37.086-.563.277.12.325-.172.554-.184-.05-.015-.146-.143-.146-.182.066.009-.06-.202.113-.033l-.012.006c.072.054.125.087.206.048 0-.125-.075-.176-.164-.27.048.1.2.011.253-.087.053-.098.17-.22.25-.143l-.015-.17c.048.036.092.072.14.107.068-.092.2-.193.286-.116l-.271-.44c.068.048.137.092.208.14a.32.32 0 0 0 .28-.262c.027.098.19.009.187-.092-.003-.101-.062-.209-.02-.304.03.033.062.063.092.095a.494.494 0 0 1-.125-.3c-.039-.003.006.068.035.044.033-.023.03-.074.057-.104.027-.03.095.012.06.033a4.52 4.52 0 0 0-.048-.196.268.268 0 0 1 .205.053c-.024-.047-.044-.098-.068-.146.044.021.089.045.134.066a.369.369 0 0 0 .035-.197.132.132 0 0 1 .134.051c-.056.036-.056.128-.015.182a.38.38 0 0 0 .173.104c-.045-.08-.06-.176-.045-.268l.253-.045c.03-.122-.14-.232-.238-.157a.689.689 0 0 0-.086-.253l.428.17a.512.512 0 0 0-.011-.474c.053.02.1.06.13.107a.49.49 0 0 0 0-.262c.078.066.191.134.268.069.101-.087-.02-.256.024-.381.018-.048.057-.08.092-.113l.521-.447c.158-.137.241-.238.173-.434.119-.003.235-.006.354-.012-.113-.065-.048-.283.083-.274-.003-.05-.006-.101-.006-.152a.48.48 0 0 0 .271.108c.057-.117-.036-.25-.14-.33-.083-.066-.663-.492-.684-.54l.065.176-.116-.071.042-.057c-.12-.056-.057.039-.018.11a.358.358 0 0 0-.131-.074l.137.241c-.086-.065-.131-.173-.214-.176.062.113.202.14.217.241-.12-.056-.188-.136-.14-.026-.056-.045-.083-.084-.092-.116.032.089-.048.104.044.22-.151-.08-.077.125-.264-.057.035.054.1.194.083.23-.182-.265-.11.092-.345-.152.116.157.074.452-.17.315a.952.952 0 0 1 .182.37c-.117-.09-.218-.2-.301-.322.05.092.098.184.149.276a5.828 5.828 0 0 0-.197-.095c.051.042.078.11.069.176a.567.567 0 0 1-.319-.182Zm-.866 1.667s0-.003 0 0a.098.098 0 0 1 .018-.036l-.018.036Zm-.1.113a.178.178 0 0 0 .05-.045c.045.036.086.08.071.09-.024-.03-.071-.027-.122-.045Zm1.068.556c0 .033-.03.018-.057-.003a.111.111 0 0 0 .015-.044c-.003-.006-.009-.012-.012-.015.02.02.039.045.054.062Z" fill="#6F777C"/>
</svg>